<svg xmlns="http://www.w3.org/2000/svg" xmlns:xlink="http://www.w3.org/1999/xlink" id="body_1" preserveAspectRatio="xMinYMin meet" viewBox="0 0 793 1123"><defs><clipPath id="1"><path d="M0 842L0 0L0 0L595 0L595 0L595 842L595 842L0 842z" /></clipPath><clipPath id="2"><path d="M28.32015 28.31244L565.9222 28.31244L565.9222 28.31244L565.9222 770.2039L565.9222 770.2039L28.32015 770.2039z" /></clipPath></defs><g transform="matrix(1.333333 0 0 1.333333 0 0)"><g><g clip-path="url(#1)"><path transform="matrix(1 0 0 -1 0 842)" d="M28.32015 716.9191L565.9225 716.9191L565.9225 716.9191L565.9225 715.3831L565.9225 715.3831L28.32015 715.3831z" stroke="none" fill="#FFFFFF" fill-rule="winding" /><path transform="matrix(1 0 0 -1 0 842)" d="M28.32015 652.4069L565.9225 652.4069L565.9225 652.4069L565.9225 650.8708L565.9225 650.8708L28.32015 650.8708z" stroke="none" fill="#FFFFFF" fill-rule="winding" /><path transform="matrix(1 0 0 -1 0 842)" d="M28.32015 716.9191L29.85616 716.9191L29.85616 716.9191L29.85616 650.8708L29.85616 650.8708L28.32015 650.8708z" stroke="none" fill="#FFFFFF" fill-rule="winding" /><path transform="matrix(1 0 0 -1 0 842)" d="M564.3865 716.9191L565.9225 716.9191L565.9225 716.9191L565.9225 650.8708L565.9225 650.8708L564.3865 650.8708z" stroke="none" fill="#FFFFFF" fill-rule="winding" /><path transform="matrix(1 0 0 -1 0 842)" d="M29.85616 696.183L564.3865 696.183L564.3865 696.183L564.3865 695.415L564.3865 695.415L29.85616 695.415z" stroke="none" fill="#404040" fill-rule="winding" /><path transform="matrix(1 0 0 -1 0 842)" d="M28.32015 643.1908L565.9225 643.1908L565.9225 643.1908L565.9225 641.6548L565.9225 641.6548L28.32015 641.6548z" stroke="none" fill="#FFFFFF" fill-rule="winding" /><path transform="matrix(1 0 0 -1 0 842)" d="M28.32015 482.6781L565.9225 482.6781L565.9225 482.6781L565.9225 481.1421L565.9225 481.1421L28.32015 481.1421z" stroke="none" fill="#FFFFFF" fill-rule="winding" /><path transform="matrix(1 0 0 -1 0 842)" d="M28.32015 643.1908L29.85616 643.1908L29.85616 643.1908L29.85616 481.1421L29.85616 481.1421L28.32015 481.1421z" stroke="none" fill="#FFFFFF" fill-rule="winding" /><path transform="matrix(1 0 0 -1 0 842)" d="M564.3865 643.1908L565.9225 643.1908L565.9225 643.1908L565.9225 481.1421L565.9225 481.1421L564.3865 481.1421z" stroke="none" fill="#FFFFFF" fill-rule="winding" /><path transform="matrix(1 0 0 -1 0 842)" d="M29.85616 622.4547L564.3865 622.4547L564.3865 622.4547L564.3865 621.6867L564.3865 621.6867L29.85616 621.6867z" stroke="none" fill="#404040" fill-rule="winding" /><path transform="matrix(1 0 0 -1 0 842)" d="M28.32015 473.462L565.9225 473.462L565.9225 473.462L565.9225 471.926L565.9225 471.926L28.32015 471.926z" stroke="none" fill="#FFFFFF" fill-rule="winding" /><path transform="matrix(1 0 0 -1 0 842)" d="M28.32015 305.2693L565.9225 305.2693L565.9225 305.2693L565.9225 303.7333L565.9225 303.7333L28.32015 303.7333z" stroke="none" fill="#FFFFFF" fill-rule="winding" /><path transform="matrix(1 0 0 -1 0 842)" d="M28.32015 473.462L29.85616 473.462L29.85616 473.462L29.85616 303.7333L29.85616 303.7333L28.32015 303.7333z" stroke="none" fill="#FFFFFF" fill-rule="winding" /><path transform="matrix(1 0 0 -1 0 842)" d="M564.3865 473.462L565.9225 473.462L565.9225 473.462L565.9225 303.7333L565.9225 303.7333L564.3865 303.7333z" stroke="none" fill="#FFFFFF" fill-rule="winding" /><path transform="matrix(1 0 0 -1 0 842)" d="M29.85616 452.7259L564.3865 452.7259L564.3865 452.7259L564.3865 451.9579L564.3865 451.9579L29.85616 451.9579z" stroke="none" fill="#404040" fill-rule="winding" /><path transform="matrix(1 0 0 -1 0 842)" d="M28.32015 296.0532L565.9225 296.0532L565.9225 296.0532L565.9225 294.5172L565.9225 294.5172L28.32015 294.5172z" stroke="none" fill="#FFFFFF" fill-rule="winding" /><path transform="matrix(1 0 0 -1 0 842)" d="M28.32015 143.9885L565.9225 143.9885L565.9225 143.9885L565.9225 142.4525L565.9225 142.4525L28.32015 142.4525z" stroke="none" fill="#FFFFFF" fill-rule="winding" /><path transform="matrix(1 0 0 -1 0 842)" d="M28.32015 296.0532L29.85616 296.0532L29.85616 296.0532L29.85616 142.4525L29.85616 142.4525L28.32015 142.4525z" stroke="none" fill="#FFFFFF" fill-rule="winding" /><path transform="matrix(1 0 0 -1 0 842)" d="M564.3865 296.0532L565.9225 296.0532L565.9225 296.0532L565.9225 142.4525L565.9225 142.4525L564.3865 142.4525z" stroke="none" fill="#FFFFFF" fill-rule="winding" /><path transform="matrix(1 0 0 -1 0 842)" d="M29.85616 275.3171L564.3865 275.3171L564.3865 275.3171L564.3865 274.5491L564.3865 274.5491L29.85616 274.5491z" stroke="none" fill="#404040" fill-rule="winding" /><path transform="matrix(1 0 0 -1 0 842)" d="M28.32015 134.7725L565.9225 134.7725L565.9225 134.7725L565.9225 133.2365L565.9225 133.2365L28.32015 133.2365z" stroke="none" fill="#FFFFFF" fill-rule="winding" /><path transform="matrix(1 0 0 -1 0 842)" d="M28.32015 134.7725L29.85616 134.7725L29.85616 134.7725L29.85616 71.7962L29.85616 71.7962L28.32015 71.7962z" stroke="none" fill="#FFFFFF" fill-rule="winding" /><path transform="matrix(1 0 0 -1 0 842)" d="M564.3865 134.7725L565.9225 134.7725L565.9225 134.7725L565.9225 71.7962L565.9225 71.7962L564.3865 71.7962z" stroke="none" fill="#FFFFFF" fill-rule="winding" /><path transform="matrix(1 0 0 -1 0 842)" d="M29.85616 114.0364L564.3865 114.0364L564.3865 114.0364L564.3865 113.2684L564.3865 113.2684L29.85616 113.2684z" stroke="none" fill="#404040" fill-rule="winding" /><g clip-path="url(#2)"></g><path transform="matrix(1 0 0 -1 0 842)" d="M36.76819 569.4625C 36.76819 568.6138 36.08052 567.9265 35.23219 567.9265C 34.38387 567.9265 33.69618 568.6138 33.69618 569.4625C 33.69618 570.3111 34.38387 570.9985 35.23219 570.9985C 36.08052 570.9985 36.76819 570.3111 36.76819 569.4625z" stroke="#000000" stroke-width="0.7680034" fill="#000000" fill-rule="evenodd" /><path transform="matrix(1 0 0 -1 0 842)" d="M36.76819 510.3262C 36.76819 509.4775 36.08052 508.7902 35.23219 508.7902C 34.38387 508.7902 33.69618 509.4775 33.69618 510.3262C 33.69618 511.1748 34.38387 511.8622 35.23219 511.8622C 36.08052 511.8622 36.76819 511.1748 36.76819 510.3262z" stroke="#000000" stroke-width="0.7680034" fill="#000000" fill-rule="evenodd" /><path transform="matrix(1 0 0 -1 0 842)" d="M36.76819 399.7337C 36.76819 398.8851 36.08052 398.1977 35.23219 398.1977C 34.38387 398.1977 33.69618 398.8851 33.69618 399.7337C 33.69618 400.5823 34.38387 401.2697 35.23219 401.2697C 36.08052 401.2697 36.76819 400.5823 36.76819 399.7337z" stroke="#000000" stroke-width="0.7680034" fill="#000000" fill-rule="evenodd" /><path transform="matrix(1 0 0 -1 0 842)" d="M36.76819 378.9976C 36.76819 378.149 36.08052 377.4616 35.23219 377.4616C 34.38387 377.4616 33.69618 378.149 33.69618 378.9976C 33.69618 379.8462 34.38387 380.5336 35.23219 380.5336C 36.08052 380.5336 36.76819 379.8462 36.76819 378.9976z" stroke="#000000" stroke-width="0.7680034" fill="#000000" fill-rule="evenodd" /><path transform="matrix(1 0 0 -1 0 842)" d="M36.76819 358.2615C 36.76819 357.4129 36.08052 356.7255 35.23219 356.7255C 34.38387 356.7255 33.69618 357.4129 33.69618 358.2615C 33.69618 359.1101 34.38387 359.7975 35.23219 359.7975C 36.08052 359.7975 36.76819 359.1101 36.76819 358.2615z" stroke="#000000" stroke-width="0.7680034" fill="#000000" fill-rule="evenodd" /><path transform="matrix(1 0 0 -1 0 842)" d="M36.76819 337.5254C 36.76819 336.6768 36.08052 335.9894 35.23219 335.9894C 34.38387 335.9894 33.69618 336.6768 33.69618 337.5254C 33.69618 338.3741 34.38387 339.0614 35.23219 339.0614C 36.08052 339.0614 36.76819 338.3741 36.76819 337.5254z" stroke="#000000" stroke-width="0.7680034" fill="#000000" fill-rule="evenodd" /><path transform="matrix(1 0 0 -1 0 842)" d="M36.76819 316.7893C 36.76819 315.9407 36.08052 315.2533 35.23219 315.2533C 34.38387 315.2533 33.69618 315.9407 33.69618 316.7893C 33.69618 317.6379 34.38387 318.3253 35.23219 318.3253C 36.08052 318.3253 36.76819 317.6379 36.76819 316.7893z" stroke="#000000" stroke-width="0.7680034" fill="#000000" fill-rule="evenodd" /><path transform="matrix(1 0 0 -1 0 842)" d="M36.76819 238.4529C 36.76819 237.6043 36.08052 236.9169 35.23219 236.9169C 34.38387 236.9169 33.69618 237.6043 33.69618 238.4529C 33.69618 239.3016 34.38387 239.989 35.23219 239.989C 36.08052 239.989 36.76819 239.3016 36.76819 238.4529z" stroke="#000000" stroke-width="0.7680034" fill="#000000" fill-rule="evenodd" /><path transform="matrix(1 0 0 -1 0 842)" d="M36.76819 217.7169C 36.76819 216.8682 36.08052 216.1808 35.23219 216.1808C 34.38387 216.1808 33.69618 216.8682 33.69618 217.7169C 33.69618 218.5655 34.38387 219.2529 35.23219 219.2529C 36.08052 219.2529 36.76819 218.5655 36.76819 217.7169z" stroke="#000000" stroke-width="0.7680034" fill="#000000" fill-rule="evenodd" /><path transform="matrix(1 0 0 -1 0 842)" d="M36.76819 196.9808C 36.76819 196.1321 36.08052 195.4448 35.23219 195.4448C 34.38387 195.4448 33.69618 196.1321 33.69618 196.9808C 33.69618 197.8294 34.38387 198.5168 35.23219 198.5168C 36.08052 198.5168 36.76819 197.8294 36.76819 196.9808z" stroke="#000000" stroke-width="0.7680034" fill="#000000" fill-rule="evenodd" /><path transform="matrix(1 0 0 -1 0 842)" d="M36.76819 176.2447C 36.76819 175.3961 36.08052 174.7087 35.23219 174.7087C 34.38387 174.7087 33.69618 175.3961 33.69618 176.2447C 33.69618 177.0933 34.38387 177.7807 35.23219 177.7807C 36.08052 177.7807 36.76819 177.0933 36.76819 176.2447z" stroke="#000000" stroke-width="0.7680034" fill="#000000" fill-rule="evenodd" /><path transform="matrix(1 0 0 -1 0 842)" d="M36.76819 155.5086C 36.76819 154.66 36.08052 153.9726 35.23219 153.9726C 34.38387 153.9726 33.69618 154.66 33.69618 155.5086C 33.69618 156.3572 34.38387 157.0446 35.23219 157.0446C 36.08052 157.0446 36.76819 156.3572 36.76819 155.5086z" stroke="#000000" stroke-width="0.7680034" fill="#000000" fill-rule="evenodd" /><path transform="matrix(1 0 0 -1 0 842)" d="M36.76819 99.44434C 36.76819 98.5957 36.08052 97.90833 35.23219 97.90833C 34.38387 97.90833 33.69618 98.5957 33.69618 99.44434C 33.69618 100.293 34.38387 100.9803 35.23219 100.9803C 36.08052 100.9803 36.76819 100.293 36.76819 99.44434z" stroke="#000000" stroke-width="0.7680034" fill="#000000" fill-rule="evenodd" /><path transform="matrix(1 0 0 -1 0 842)" d="M36.76819 78.70825C 36.76819 77.85962 36.08052 77.17224 35.23219 77.17224C 34.38387 77.17224 33.69618 77.85962 33.69618 78.70825C 33.69618 79.55688 34.38387 80.24426 35.23219 80.24426C 36.08052 80.24426 36.76819 79.55688 36.76819 78.70825z" stroke="#000000" stroke-width="0.7680034" fill="#000000" fill-rule="evenodd" /><g transform="matrix(0.2479862 0 0 0.2451942 427.6818 16.87042)"><g transform="matrix(1 0 0 1 0 0)"><image x="0" y="0" xlink:href="img_01.png" width="295" height="413" /></g></g></g></g></g></svg>